<?xml version="1.0" encoding="utf-8"?>
<!DOCTYPE svg PUBLIC "-//W3C//DTD SVG 1.1//EN" "http://www.w3.org/Graphics/SVG/1.1/DTD/svg11.dtd">
<svg version="1.1" xmlns="http://www.w3.org/2000/svg" xmlns:xlink="http://www.w3.org/1999/xlink" x="0px" y="0px" viewBox="0 0 1000 1000" enable-background="new 0 0 1000 1000" xml:space="preserve">
<g><g transform="translate(-400.000000,30.000000) scale(0.005000,-0.005000)"><path d="M750.4,4684.8v-325.2h323.1h325.2l8.7-2313.4c8.7-2482.5,6.5-2389.3,121.4-2840.3c318.7-1233.7,1342.1-2246.2,2603.9-2573.6c307.9-80.2,518.2-106.2,867.3-106.2c602.7,0,1071.1,114.9,1626.1,401.1c344.7,175.6,617.9,377.2,899.8,656.9c453.1,453.2,780.5,1014.7,945.3,1624c114.9,427.1,112.8,355.6,121.4,2838.1l8.7,2313.4h325.2h323.1v325.2V5010h-986.5h-986.5v-325.2v-323.1l331.7-6.5l329.6-6.5l-2.1-2254.9c0-2038-4.4-2276.5-36.9-2471.7c-71.5-405.4-242.8-832.6-477-1181.6c-138.8-208.1-544.2-613.6-752.3-752.3c-349.1-234.2-784.9-409.8-1170.8-472.7c-266.7-41.2-741.5-41.2-988.7,0c-1051.5,184.3-1953.5,964.8-2296.1,1990.4c-156.1,466.1-151.8,375.1-151.8,2888v2254.9l331.7,6.5l329.6,6.5v323.1V5010h-986.5H750.4V4684.8z"/><path d="M750.4-4464.8V-4790H5000h4249.6v325.2v325.2H5000H750.4V-4464.8z"/></g></g>
</svg>
